<svg version="1.0" xmlns="http://www.w3.org/2000/svg" xmlns:xlink="http://www.w3.org/1999/xlink"
	 viewBox="0 0 100 100" enable-background="new 0 0 100 100" xml:space="preserve">
	
<svg xmlns="http://www.w3.org/2000/svg" xmlns:xlink="http://www.w3.org/1999/xlink" version="1.1" width="100" height="100" viewBox="0 0 2000 2000" x="0" y="0" shape-rendering="crispEdges"><defs/><rect x="0" y="0" width="2000" height="2000" fill="#ffffff"/><rect x="563" y="149" width="46" height="46" fill="#000000"/><rect x="793" y="149" width="46" height="46" fill="#000000"/><rect x="839" y="149" width="46" height="46" fill="#000000"/><rect x="977" y="149" width="46" height="46" fill="#000000"/><rect x="1023" y="149" width="46" height="46" fill="#000000"/><rect x="1115" y="149" width="46" height="46" fill="#000000"/><rect x="1161" y="149" width="46" height="46" fill="#000000"/><rect x="1437" y="149" width="46" height="46" fill="#000000"/><rect x="517" y="195" width="46" height="46" fill="#000000"/><rect x="563" y="195" width="46" height="46" fill="#000000"/><rect x="655" y="195" width="46" height="46" fill="#000000"/><rect x="701" y="195" width="46" height="46" fill="#000000"/><rect x="747" y="195" width="46" height="46" fill="#000000"/><rect x="793" y="195" width="46" height="46" fill="#000000"/><rect x="1069" y="195" width="46" height="46" fill="#000000"/><rect x="1299" y="195" width="46" height="46" fill="#000000"/><rect x="1391" y="195" width="46" height="46" fill="#000000"/><rect x="563" y="241" width="46" height="46" fill="#000000"/><rect x="609" y="241" width="46" height="46" fill="#000000"/><rect x="655" y="241" width="46" height="46" fill="#000000"/><rect x="747" y="241" width="46" height="46" fill="#000000"/><rect x="885" y="241" width="46" height="46" fill="#000000"/><rect x="1023" y="241" width="46" height="46" fill="#000000"/><rect x="1115" y="241" width="46" height="46" fill="#000000"/><rect x="1161" y="241" width="46" height="46" fill="#000000"/><rect x="1207" y="241" width="46" height="46" fill="#000000"/><rect x="1253" y="241" width="46" height="46" fill="#000000"/><rect x="1345" y="241" width="46" height="46" fill="#000000"/><rect x="1437" y="241" width="46" height="46" fill="#000000"/><rect x="517" y="287" width="46" height="46" fill="#000000"/><rect x="563" y="287" width="46" height="46" fill="#000000"/><rect x="655" y="287" width="46" height="46" fill="#000000"/><rect x="793" y="287" width="46" height="46" fill="#000000"/><rect x="839" y="287" width="46" height="46" fill="#000000"/><rect x="977" y="287" width="46" height="46" fill="#000000"/><rect x="1253" y="287" width="46" height="46" fill="#000000"/><rect x="1299" y="287" width="46" height="46" fill="#000000"/><rect x="1391" y="287" width="46" height="46" fill="#000000"/><rect x="609" y="333" width="46" height="46" fill="#000000"/><rect x="701" y="333" width="46" height="46" fill="#000000"/><rect x="793" y="333" width="46" height="46" fill="#000000"/><rect x="839" y="333" width="46" height="46" fill="#000000"/><rect x="885" y="333" width="46" height="46" fill="#000000"/><rect x="977" y="333" width="46" height="46" fill="#000000"/><rect x="1115" y="333" width="46" height="46" fill="#000000"/><rect x="1391" y="333" width="46" height="46" fill="#000000"/><rect x="517" y="379" width="46" height="46" fill="#000000"/><rect x="609" y="379" width="46" height="46" fill="#000000"/><rect x="747" y="379" width="46" height="46" fill="#000000"/><rect x="793" y="379" width="46" height="46" fill="#000000"/><rect x="1069" y="379" width="46" height="46" fill="#000000"/><rect x="1253" y="379" width="46" height="46" fill="#000000"/><rect x="1299" y="379" width="46" height="46" fill="#000000"/><rect x="1391" y="379" width="46" height="46" fill="#000000"/><rect x="1437" y="379" width="46" height="46" fill="#000000"/><rect x="517" y="425" width="46" height="46" fill="#000000"/><rect x="609" y="425" width="46" height="46" fill="#000000"/><rect x="701" y="425" width="46" height="46" fill="#000000"/><rect x="793" y="425" width="46" height="46" fill="#000000"/><rect x="885" y="425" width="46" height="46" fill="#000000"/><rect x="977" y="425" width="46" height="46" fill="#000000"/><rect x="1069" y="425" width="46" height="46" fill="#000000"/><rect x="1161" y="425" width="46" height="46" fill="#000000"/><rect x="1253" y="425" width="46" height="46" fill="#000000"/><rect x="1345" y="425" width="46" height="46" fill="#000000"/><rect x="1437" y="425" width="46" height="46" fill="#000000"/><rect x="701" y="471" width="46" height="46" fill="#000000"/><rect x="839" y="471" width="46" height="46" fill="#000000"/><rect x="885" y="471" width="46" height="46" fill="#000000"/><rect x="977" y="471" width="46" height="46" fill="#000000"/><rect x="1023" y="471" width="46" height="46" fill="#000000"/><rect x="1115" y="471" width="46" height="46" fill="#000000"/><rect x="1161" y="471" width="46" height="46" fill="#000000"/><rect x="1207" y="471" width="46" height="46" fill="#000000"/><rect x="1299" y="471" width="46" height="46" fill="#000000"/><rect x="1345" y="471" width="46" height="46" fill="#000000"/><rect x="149" y="517" width="46" height="46" fill="#000000"/><rect x="195" y="517" width="46" height="46" fill="#000000"/><rect x="241" y="517" width="46" height="46" fill="#000000"/><rect x="287" y="517" width="46" height="46" fill="#000000"/><rect x="333" y="517" width="46" height="46" fill="#000000"/><rect x="425" y="517" width="46" height="46" fill="#000000"/><rect x="471" y="517" width="46" height="46" fill="#000000"/><rect x="517" y="517" width="46" height="46" fill="#000000"/><rect x="563" y="517" width="46" height="46" fill="#000000"/><rect x="609" y="517" width="46" height="46" fill="#000000"/><rect x="701" y="517" width="46" height="46" fill="#000000"/><rect x="839" y="517" width="46" height="46" fill="#000000"/><rect x="1115" y="517" width="46" height="46" fill="#000000"/><rect x="1391" y="517" width="46" height="46" fill="#000000"/><rect x="1437" y="517" width="46" height="46" fill="#000000"/><rect x="1483" y="517" width="46" height="46" fill="#000000"/><rect x="1575" y="517" width="46" height="46" fill="#000000"/><rect x="1667" y="517" width="46" height="46" fill="#000000"/><rect x="1759" y="517" width="46" height="46" fill="#000000"/><rect x="149" y="563" width="46" height="46" fill="#000000"/><rect x="287" y="563" width="46" height="46" fill="#000000"/><rect x="333" y="563" width="46" height="46" fill="#000000"/><rect x="563" y="563" width="46" height="46" fill="#000000"/><rect x="793" y="563" width="46" height="46" fill="#000000"/><rect x="839" y="563" width="46" height="46" fill="#000000"/><rect x="885" y="563" width="46" height="46" fill="#000000"/><rect x="1115" y="563" width="46" height="46" fill="#000000"/><rect x="1253" y="563" width="46" height="46" fill="#000000"/><rect x="1391" y="563" width="46" height="46" fill="#000000"/><rect x="1437" y="563" width="46" height="46" fill="#000000"/><rect x="1529" y="563" width="46" height="46" fill="#000000"/><rect x="1621" y="563" width="46" height="46" fill="#000000"/><rect x="1667" y="563" width="46" height="46" fill="#000000"/><rect x="149" y="609" width="46" height="46" fill="#000000"/><rect x="195" y="609" width="46" height="46" fill="#000000"/><rect x="241" y="609" width="46" height="46" fill="#000000"/><rect x="379" y="609" width="46" height="46" fill="#000000"/><rect x="425" y="609" width="46" height="46" fill="#000000"/><rect x="517" y="609" width="46" height="46" fill="#000000"/><rect x="563" y="609" width="46" height="46" fill="#000000"/><rect x="609" y="609" width="46" height="46" fill="#000000"/><rect x="655" y="609" width="46" height="46" fill="#000000"/><rect x="701" y="609" width="46" height="46" fill="#000000"/><rect x="747" y="609" width="46" height="46" fill="#000000"/><rect x="839" y="609" width="46" height="46" fill="#000000"/><rect x="885" y="609" width="46" height="46" fill="#000000"/><rect x="931" y="609" width="46" height="46" fill="#000000"/><rect x="977" y="609" width="46" height="46" fill="#000000"/><rect x="1023" y="609" width="46" height="46" fill="#000000"/><rect x="1069" y="609" width="46" height="46" fill="#000000"/><rect x="1299" y="609" width="46" height="46" fill="#000000"/><rect x="1345" y="609" width="46" height="46" fill="#000000"/><rect x="1391" y="609" width="46" height="46" fill="#000000"/><rect x="1437" y="609" width="46" height="46" fill="#000000"/><rect x="1529" y="609" width="46" height="46" fill="#000000"/><rect x="1575" y="609" width="46" height="46" fill="#000000"/><rect x="1621" y="609" width="46" height="46" fill="#000000"/><rect x="1713" y="609" width="46" height="46" fill="#000000"/><rect x="1805" y="609" width="46" height="46" fill="#000000"/><rect x="241" y="655" width="46" height="46" fill="#000000"/><rect x="517" y="655" width="46" height="46" fill="#000000"/><rect x="655" y="655" width="46" height="46" fill="#000000"/><rect x="793" y="655" width="46" height="46" fill="#000000"/><rect x="1023" y="655" width="46" height="46" fill="#000000"/><rect x="1115" y="655" width="46" height="46" fill="#000000"/><rect x="1161" y="655" width="46" height="46" fill="#000000"/><rect x="1207" y="655" width="46" height="46" fill="#000000"/><rect x="1253" y="655" width="46" height="46" fill="#000000"/><rect x="1483" y="655" width="46" height="46" fill="#000000"/><rect x="1667" y="655" width="46" height="46" fill="#000000"/><rect x="1759" y="655" width="46" height="46" fill="#000000"/><rect x="149" y="701" width="46" height="46" fill="#000000"/><rect x="195" y="701" width="46" height="46" fill="#000000"/><rect x="287" y="701" width="46" height="46" fill="#000000"/><rect x="333" y="701" width="46" height="46" fill="#000000"/><rect x="379" y="701" width="46" height="46" fill="#000000"/><rect x="425" y="701" width="46" height="46" fill="#000000"/><rect x="563" y="701" width="46" height="46" fill="#000000"/><rect x="609" y="701" width="46" height="46" fill="#000000"/><rect x="655" y="701" width="46" height="46" fill="#000000"/><rect x="747" y="701" width="46" height="46" fill="#000000"/><rect x="793" y="701" width="46" height="46" fill="#000000"/><rect x="839" y="701" width="46" height="46" fill="#000000"/><rect x="1069" y="701" width="46" height="46" fill="#000000"/><rect x="1115" y="701" width="46" height="46" fill="#000000"/><rect x="1161" y="701" width="46" height="46" fill="#000000"/><rect x="1253" y="701" width="46" height="46" fill="#000000"/><rect x="1345" y="701" width="46" height="46" fill="#000000"/><rect x="1391" y="701" width="46" height="46" fill="#000000"/><rect x="1621" y="701" width="46" height="46" fill="#000000"/><rect x="1667" y="701" width="46" height="46" fill="#000000"/><rect x="1805" y="701" width="46" height="46" fill="#000000"/><rect x="195" y="747" width="46" height="46" fill="#000000"/><rect x="241" y="747" width="46" height="46" fill="#000000"/><rect x="287" y="747" width="46" height="46" fill="#000000"/><rect x="471" y="747" width="46" height="46" fill="#000000"/><rect x="517" y="747" width="46" height="46" fill="#000000"/><rect x="701" y="747" width="46" height="46" fill="#000000"/><rect x="839" y="747" width="46" height="46" fill="#000000"/><rect x="1069" y="747" width="46" height="46" fill="#000000"/><rect x="1115" y="747" width="46" height="46" fill="#000000"/><rect x="1253" y="747" width="46" height="46" fill="#000000"/><rect x="1483" y="747" width="46" height="46" fill="#000000"/><rect x="1529" y="747" width="46" height="46" fill="#000000"/><rect x="1667" y="747" width="46" height="46" fill="#000000"/><rect x="1805" y="747" width="46" height="46" fill="#000000"/><rect x="149" y="793" width="46" height="46" fill="#000000"/><rect x="241" y="793" width="46" height="46" fill="#000000"/><rect x="287" y="793" width="46" height="46" fill="#000000"/><rect x="425" y="793" width="46" height="46" fill="#000000"/><rect x="563" y="793" width="46" height="46" fill="#000000"/><rect x="747" y="793" width="46" height="46" fill="#000000"/><rect x="839" y="793" width="46" height="46" fill="#000000"/><rect x="885" y="793" width="46" height="46" fill="#000000"/><rect x="931" y="793" width="46" height="46" fill="#000000"/><rect x="977" y="793" width="46" height="46" fill="#000000"/><rect x="1069" y="793" width="46" height="46" fill="#000000"/><rect x="1207" y="793" width="46" height="46" fill="#000000"/><rect x="1299" y="793" width="46" height="46" fill="#000000"/><rect x="1391" y="793" width="46" height="46" fill="#000000"/><rect x="1483" y="793" width="46" height="46" fill="#000000"/><rect x="1529" y="793" width="46" height="46" fill="#000000"/><rect x="1575" y="793" width="46" height="46" fill="#000000"/><rect x="1621" y="793" width="46" height="46" fill="#000000"/><rect x="1713" y="793" width="46" height="46" fill="#000000"/><rect x="1805" y="793" width="46" height="46" fill="#000000"/><rect x="195" y="839" width="46" height="46" fill="#000000"/><rect x="241" y="839" width="46" height="46" fill="#000000"/><rect x="471" y="839" width="46" height="46" fill="#000000"/><rect x="609" y="839" width="46" height="46" fill="#000000"/><rect x="701" y="839" width="46" height="46" fill="#000000"/><rect x="793" y="839" width="46" height="46" fill="#000000"/><rect x="931" y="839" width="46" height="46" fill="#000000"/><rect x="1023" y="839" width="46" height="46" fill="#000000"/><rect x="1115" y="839" width="46" height="46" fill="#000000"/><rect x="1161" y="839" width="46" height="46" fill="#000000"/><rect x="1207" y="839" width="46" height="46" fill="#000000"/><rect x="1253" y="839" width="46" height="46" fill="#000000"/><rect x="1345" y="839" width="46" height="46" fill="#000000"/><rect x="1437" y="839" width="46" height="46" fill="#000000"/><rect x="1667" y="839" width="46" height="46" fill="#000000"/><rect x="1759" y="839" width="46" height="46" fill="#000000"/><rect x="241" y="885" width="46" height="46" fill="#000000"/><rect x="333" y="885" width="46" height="46" fill="#000000"/><rect x="425" y="885" width="46" height="46" fill="#000000"/><rect x="471" y="885" width="46" height="46" fill="#000000"/><rect x="609" y="885" width="46" height="46" fill="#000000"/><rect x="701" y="885" width="46" height="46" fill="#000000"/><rect x="747" y="885" width="46" height="46" fill="#000000"/><rect x="839" y="885" width="46" height="46" fill="#000000"/><rect x="977" y="885" width="46" height="46" fill="#000000"/><rect x="1253" y="885" width="46" height="46" fill="#000000"/><rect x="1391" y="885" width="46" height="46" fill="#000000"/><rect x="1483" y="885" width="46" height="46" fill="#000000"/><rect x="1529" y="885" width="46" height="46" fill="#000000"/><rect x="1575" y="885" width="46" height="46" fill="#000000"/><rect x="1621" y="885" width="46" height="46" fill="#000000"/><rect x="1805" y="885" width="46" height="46" fill="#000000"/><rect x="195" y="931" width="46" height="46" fill="#000000"/><rect x="287" y="931" width="46" height="46" fill="#000000"/><rect x="471" y="931" width="46" height="46" fill="#000000"/><rect x="517" y="931" width="46" height="46" fill="#000000"/><rect x="563" y="931" width="46" height="46" fill="#000000"/><rect x="609" y="931" width="46" height="46" fill="#000000"/><rect x="793" y="931" width="46" height="46" fill="#000000"/><rect x="839" y="931" width="46" height="46" fill="#000000"/><rect x="1069" y="931" width="46" height="46" fill="#000000"/><rect x="1115" y="931" width="46" height="46" fill="#000000"/><rect x="1161" y="931" width="46" height="46" fill="#000000"/><rect x="1207" y="931" width="46" height="46" fill="#000000"/><rect x="1253" y="931" width="46" height="46" fill="#000000"/><rect x="1391" y="931" width="46" height="46" fill="#000000"/><rect x="1437" y="931" width="46" height="46" fill="#000000"/><rect x="1667" y="931" width="46" height="46" fill="#000000"/><rect x="1805" y="931" width="46" height="46" fill="#000000"/><rect x="149" y="977" width="46" height="46" fill="#000000"/><rect x="241" y="977" width="46" height="46" fill="#000000"/><rect x="287" y="977" width="46" height="46" fill="#000000"/><rect x="379" y="977" width="46" height="46" fill="#000000"/><rect x="425" y="977" width="46" height="46" fill="#000000"/><rect x="471" y="977" width="46" height="46" fill="#000000"/><rect x="563" y="977" width="46" height="46" fill="#000000"/><rect x="609" y="977" width="46" height="46" fill="#000000"/><rect x="655" y="977" width="46" height="46" fill="#000000"/><rect x="701" y="977" width="46" height="46" fill="#000000"/><rect x="747" y="977" width="46" height="46" fill="#000000"/><rect x="839" y="977" width="46" height="46" fill="#000000"/><rect x="885" y="977" width="46" height="46" fill="#000000"/><rect x="931" y="977" width="46" height="46" fill="#000000"/><rect x="977" y="977" width="46" height="46" fill="#000000"/><rect x="1069" y="977" width="46" height="46" fill="#000000"/><rect x="1299" y="977" width="46" height="46" fill="#000000"/><rect x="1391" y="977" width="46" height="46" fill="#000000"/><rect x="1483" y="977" width="46" height="46" fill="#000000"/><rect x="1529" y="977" width="46" height="46" fill="#000000"/><rect x="1575" y="977" width="46" height="46" fill="#000000"/><rect x="1621" y="977" width="46" height="46" fill="#000000"/><rect x="1713" y="977" width="46" height="46" fill="#000000"/><rect x="1805" y="977" width="46" height="46" fill="#000000"/><rect x="149" y="1023" width="46" height="46" fill="#000000"/><rect x="195" y="1023" width="46" height="46" fill="#000000"/><rect x="241" y="1023" width="46" height="46" fill="#000000"/><rect x="287" y="1023" width="46" height="46" fill="#000000"/><rect x="333" y="1023" width="46" height="46" fill="#000000"/><rect x="379" y="1023" width="46" height="46" fill="#000000"/><rect x="471" y="1023" width="46" height="46" fill="#000000"/><rect x="517" y="1023" width="46" height="46" fill="#000000"/><rect x="563" y="1023" width="46" height="46" fill="#000000"/><rect x="609" y="1023" width="46" height="46" fill="#000000"/><rect x="655" y="1023" width="46" height="46" fill="#000000"/><rect x="793" y="1023" width="46" height="46" fill="#000000"/><rect x="1023" y="1023" width="46" height="46" fill="#000000"/><rect x="1115" y="1023" width="46" height="46" fill="#000000"/><rect x="1161" y="1023" width="46" height="46" fill="#000000"/><rect x="1207" y="1023" width="46" height="46" fill="#000000"/><rect x="1253" y="1023" width="46" height="46" fill="#000000"/><rect x="1299" y="1023" width="46" height="46" fill="#000000"/><rect x="1345" y="1023" width="46" height="46" fill="#000000"/><rect x="1437" y="1023" width="46" height="46" fill="#000000"/><rect x="1667" y="1023" width="46" height="46" fill="#000000"/><rect x="1759" y="1023" width="46" height="46" fill="#000000"/><rect x="149" y="1069" width="46" height="46" fill="#000000"/><rect x="241" y="1069" width="46" height="46" fill="#000000"/><rect x="287" y="1069" width="46" height="46" fill="#000000"/><rect x="333" y="1069" width="46" height="46" fill="#000000"/><rect x="379" y="1069" width="46" height="46" fill="#000000"/><rect x="425" y="1069" width="46" height="46" fill="#000000"/><rect x="517" y="1069" width="46" height="46" fill="#000000"/><rect x="563" y="1069" width="46" height="46" fill="#000000"/><rect x="655" y="1069" width="46" height="46" fill="#000000"/><rect x="839" y="1069" width="46" height="46" fill="#000000"/><rect x="977" y="1069" width="46" height="46" fill="#000000"/><rect x="1161" y="1069" width="46" height="46" fill="#000000"/><rect x="1253" y="1069" width="46" height="46" fill="#000000"/><rect x="1391" y="1069" width="46" height="46" fill="#000000"/><rect x="1437" y="1069" width="46" height="46" fill="#000000"/><rect x="1483" y="1069" width="46" height="46" fill="#000000"/><rect x="1529" y="1069" width="46" height="46" fill="#000000"/><rect x="1575" y="1069" width="46" height="46" fill="#000000"/><rect x="1667" y="1069" width="46" height="46" fill="#000000"/><rect x="1805" y="1069" width="46" height="46" fill="#000000"/><rect x="333" y="1115" width="46" height="46" fill="#000000"/><rect x="563" y="1115" width="46" height="46" fill="#000000"/><rect x="701" y="1115" width="46" height="46" fill="#000000"/><rect x="885" y="1115" width="46" height="46" fill="#000000"/><rect x="977" y="1115" width="46" height="46" fill="#000000"/><rect x="1115" y="1115" width="46" height="46" fill="#000000"/><rect x="1253" y="1115" width="46" height="46" fill="#000000"/><rect x="1391" y="1115" width="46" height="46" fill="#000000"/><rect x="1437" y="1115" width="46" height="46" fill="#000000"/><rect x="1621" y="1115" width="46" height="46" fill="#000000"/><rect x="1667" y="1115" width="46" height="46" fill="#000000"/><rect x="1805" y="1115" width="46" height="46" fill="#000000"/><rect x="195" y="1161" width="46" height="46" fill="#000000"/><rect x="241" y="1161" width="46" height="46" fill="#000000"/><rect x="333" y="1161" width="46" height="46" fill="#000000"/><rect x="379" y="1161" width="46" height="46" fill="#000000"/><rect x="425" y="1161" width="46" height="46" fill="#000000"/><rect x="563" y="1161" width="46" height="46" fill="#000000"/><rect x="747" y="1161" width="46" height="46" fill="#000000"/><rect x="839" y="1161" width="46" height="46" fill="#000000"/><rect x="885" y="1161" width="46" height="46" fill="#000000"/><rect x="931" y="1161" width="46" height="46" fill="#000000"/><rect x="977" y="1161" width="46" height="46" fill="#000000"/><rect x="1069" y="1161" width="46" height="46" fill="#000000"/><rect x="1207" y="1161" width="46" height="46" fill="#000000"/><rect x="1299" y="1161" width="46" height="46" fill="#000000"/><rect x="1345" y="1161" width="46" height="46" fill="#000000"/><rect x="1391" y="1161" width="46" height="46" fill="#000000"/><rect x="1437" y="1161" width="46" height="46" fill="#000000"/><rect x="1483" y="1161" width="46" height="46" fill="#000000"/><rect x="1529" y="1161" width="46" height="46" fill="#000000"/><rect x="1575" y="1161" width="46" height="46" fill="#000000"/><rect x="1621" y="1161" width="46" height="46" fill="#000000"/><rect x="1713" y="1161" width="46" height="46" fill="#000000"/><rect x="1805" y="1161" width="46" height="46" fill="#000000"/><rect x="149" y="1207" width="46" height="46" fill="#000000"/><rect x="241" y="1207" width="46" height="46" fill="#000000"/><rect x="287" y="1207" width="46" height="46" fill="#000000"/><rect x="563" y="1207" width="46" height="46" fill="#000000"/><rect x="701" y="1207" width="46" height="46" fill="#000000"/><rect x="793" y="1207" width="46" height="46" fill="#000000"/><rect x="1023" y="1207" width="46" height="46" fill="#000000"/><rect x="1115" y="1207" width="46" height="46" fill="#000000"/><rect x="1161" y="1207" width="46" height="46" fill="#000000"/><rect x="1207" y="1207" width="46" height="46" fill="#000000"/><rect x="1253" y="1207" width="46" height="46" fill="#000000"/><rect x="1667" y="1207" width="46" height="46" fill="#000000"/><rect x="1759" y="1207" width="46" height="46" fill="#000000"/><rect x="149" y="1253" width="46" height="46" fill="#000000"/><rect x="379" y="1253" width="46" height="46" fill="#000000"/><rect x="425" y="1253" width="46" height="46" fill="#000000"/><rect x="701" y="1253" width="46" height="46" fill="#000000"/><rect x="793" y="1253" width="46" height="46" fill="#000000"/><rect x="839" y="1253" width="46" height="46" fill="#000000"/><rect x="885" y="1253" width="46" height="46" fill="#000000"/><rect x="931" y="1253" width="46" height="46" fill="#000000"/><rect x="1115" y="1253" width="46" height="46" fill="#000000"/><rect x="1253" y="1253" width="46" height="46" fill="#000000"/><rect x="1345" y="1253" width="46" height="46" fill="#000000"/><rect x="1391" y="1253" width="46" height="46" fill="#000000"/><rect x="1437" y="1253" width="46" height="46" fill="#000000"/><rect x="1483" y="1253" width="46" height="46" fill="#000000"/><rect x="1529" y="1253" width="46" height="46" fill="#000000"/><rect x="1575" y="1253" width="46" height="46" fill="#000000"/><rect x="1621" y="1253" width="46" height="46" fill="#000000"/><rect x="1805" y="1253" width="46" height="46" fill="#000000"/><rect x="149" y="1299" width="46" height="46" fill="#000000"/><rect x="241" y="1299" width="46" height="46" fill="#000000"/><rect x="287" y="1299" width="46" height="46" fill="#000000"/><rect x="333" y="1299" width="46" height="46" fill="#000000"/><rect x="379" y="1299" width="46" height="46" fill="#000000"/><rect x="471" y="1299" width="46" height="46" fill="#000000"/><rect x="885" y="1299" width="46" height="46" fill="#000000"/><rect x="977" y="1299" width="46" height="46" fill="#000000"/><rect x="1023" y="1299" width="46" height="46" fill="#000000"/><rect x="1069" y="1299" width="46" height="46" fill="#000000"/><rect x="1115" y="1299" width="46" height="46" fill="#000000"/><rect x="1161" y="1299" width="46" height="46" fill="#000000"/><rect x="1207" y="1299" width="46" height="46" fill="#000000"/><rect x="1253" y="1299" width="46" height="46" fill="#000000"/><rect x="1437" y="1299" width="46" height="46" fill="#000000"/><rect x="1483" y="1299" width="46" height="46" fill="#000000"/><rect x="1529" y="1299" width="46" height="46" fill="#000000"/><rect x="1667" y="1299" width="46" height="46" fill="#000000"/><rect x="1759" y="1299" width="46" height="46" fill="#000000"/><rect x="149" y="1345" width="46" height="46" fill="#000000"/><rect x="333" y="1345" width="46" height="46" fill="#000000"/><rect x="425" y="1345" width="46" height="46" fill="#000000"/><rect x="563" y="1345" width="46" height="46" fill="#000000"/><rect x="655" y="1345" width="46" height="46" fill="#000000"/><rect x="701" y="1345" width="46" height="46" fill="#000000"/><rect x="793" y="1345" width="46" height="46" fill="#000000"/><rect x="1069" y="1345" width="46" height="46" fill="#000000"/><rect x="1299" y="1345" width="46" height="46" fill="#000000"/><rect x="1391" y="1345" width="46" height="46" fill="#000000"/><rect x="1437" y="1345" width="46" height="46" fill="#000000"/><rect x="1529" y="1345" width="46" height="46" fill="#000000"/><rect x="1575" y="1345" width="46" height="46" fill="#000000"/><rect x="1621" y="1345" width="46" height="46" fill="#000000"/><rect x="1713" y="1345" width="46" height="46" fill="#000000"/><rect x="1759" y="1345" width="46" height="46" fill="#000000"/><rect x="149" y="1391" width="46" height="46" fill="#000000"/><rect x="241" y="1391" width="46" height="46" fill="#000000"/><rect x="333" y="1391" width="46" height="46" fill="#000000"/><rect x="379" y="1391" width="46" height="46" fill="#000000"/><rect x="471" y="1391" width="46" height="46" fill="#000000"/><rect x="517" y="1391" width="46" height="46" fill="#000000"/><rect x="609" y="1391" width="46" height="46" fill="#000000"/><rect x="655" y="1391" width="46" height="46" fill="#000000"/><rect x="839" y="1391" width="46" height="46" fill="#000000"/><rect x="885" y="1391" width="46" height="46" fill="#000000"/><rect x="931" y="1391" width="46" height="46" fill="#000000"/><rect x="1023" y="1391" width="46" height="46" fill="#000000"/><rect x="1115" y="1391" width="46" height="46" fill="#000000"/><rect x="1161" y="1391" width="46" height="46" fill="#000000"/><rect x="1207" y="1391" width="46" height="46" fill="#000000"/><rect x="1253" y="1391" width="46" height="46" fill="#000000"/><rect x="1345" y="1391" width="46" height="46" fill="#000000"/><rect x="1483" y="1391" width="46" height="46" fill="#000000"/><rect x="1667" y="1391" width="46" height="46" fill="#000000"/><rect x="1713" y="1391" width="46" height="46" fill="#000000"/><rect x="1759" y="1391" width="46" height="46" fill="#000000"/><rect x="1805" y="1391" width="46" height="46" fill="#000000"/><rect x="149" y="1437" width="46" height="46" fill="#000000"/><rect x="241" y="1437" width="46" height="46" fill="#000000"/><rect x="379" y="1437" width="46" height="46" fill="#000000"/><rect x="425" y="1437" width="46" height="46" fill="#000000"/><rect x="655" y="1437" width="46" height="46" fill="#000000"/><rect x="701" y="1437" width="46" height="46" fill="#000000"/><rect x="747" y="1437" width="46" height="46" fill="#000000"/><rect x="839" y="1437" width="46" height="46" fill="#000000"/><rect x="977" y="1437" width="46" height="46" fill="#000000"/><rect x="1069" y="1437" width="46" height="46" fill="#000000"/><rect x="1115" y="1437" width="46" height="46" fill="#000000"/><rect x="1253" y="1437" width="46" height="46" fill="#000000"/><rect x="1299" y="1437" width="46" height="46" fill="#000000"/><rect x="1345" y="1437" width="46" height="46" fill="#000000"/><rect x="1391" y="1437" width="46" height="46" fill="#000000"/><rect x="1437" y="1437" width="46" height="46" fill="#000000"/><rect x="1483" y="1437" width="46" height="46" fill="#000000"/><rect x="1529" y="1437" width="46" height="46" fill="#000000"/><rect x="1575" y="1437" width="46" height="46" fill="#000000"/><rect x="1621" y="1437" width="46" height="46" fill="#000000"/><rect x="1667" y="1437" width="46" height="46" fill="#000000"/><rect x="1759" y="1437" width="46" height="46" fill="#000000"/><rect x="1805" y="1437" width="46" height="46" fill="#000000"/><rect x="517" y="1483" width="46" height="46" fill="#000000"/><rect x="563" y="1483" width="46" height="46" fill="#000000"/><rect x="609" y="1483" width="46" height="46" fill="#000000"/><rect x="701" y="1483" width="46" height="46" fill="#000000"/><rect x="793" y="1483" width="46" height="46" fill="#000000"/><rect x="1023" y="1483" width="46" height="46" fill="#000000"/><rect x="1115" y="1483" width="46" height="46" fill="#000000"/><rect x="1161" y="1483" width="46" height="46" fill="#000000"/><rect x="1207" y="1483" width="46" height="46" fill="#000000"/><rect x="1437" y="1483" width="46" height="46" fill="#000000"/><rect x="1621" y="1483" width="46" height="46" fill="#000000"/><rect x="1667" y="1483" width="46" height="46" fill="#000000"/><rect x="1805" y="1483" width="46" height="46" fill="#000000"/><rect x="517" y="1529" width="46" height="46" fill="#000000"/><rect x="563" y="1529" width="46" height="46" fill="#000000"/><rect x="609" y="1529" width="46" height="46" fill="#000000"/><rect x="701" y="1529" width="46" height="46" fill="#000000"/><rect x="747" y="1529" width="46" height="46" fill="#000000"/><rect x="839" y="1529" width="46" height="46" fill="#000000"/><rect x="885" y="1529" width="46" height="46" fill="#000000"/><rect x="1069" y="1529" width="46" height="46" fill="#000000"/><rect x="1253" y="1529" width="46" height="46" fill="#000000"/><rect x="1299" y="1529" width="46" height="46" fill="#000000"/><rect x="1391" y="1529" width="46" height="46" fill="#000000"/><rect x="1437" y="1529" width="46" height="46" fill="#000000"/><rect x="1529" y="1529" width="46" height="46" fill="#000000"/><rect x="1621" y="1529" width="46" height="46" fill="#000000"/><rect x="1713" y="1529" width="46" height="46" fill="#000000"/><rect x="1759" y="1529" width="46" height="46" fill="#000000"/><rect x="1805" y="1529" width="46" height="46" fill="#000000"/><rect x="609" y="1575" width="46" height="46" fill="#000000"/><rect x="701" y="1575" width="46" height="46" fill="#000000"/><rect x="793" y="1575" width="46" height="46" fill="#000000"/><rect x="839" y="1575" width="46" height="46" fill="#000000"/><rect x="885" y="1575" width="46" height="46" fill="#000000"/><rect x="977" y="1575" width="46" height="46" fill="#000000"/><rect x="1023" y="1575" width="46" height="46" fill="#000000"/><rect x="1115" y="1575" width="46" height="46" fill="#000000"/><rect x="1161" y="1575" width="46" height="46" fill="#000000"/><rect x="1207" y="1575" width="46" height="46" fill="#000000"/><rect x="1345" y="1575" width="46" height="46" fill="#000000"/><rect x="1391" y="1575" width="46" height="46" fill="#000000"/><rect x="1437" y="1575" width="46" height="46" fill="#000000"/><rect x="1621" y="1575" width="46" height="46" fill="#000000"/><rect x="1667" y="1575" width="46" height="46" fill="#000000"/><rect x="517" y="1621" width="46" height="46" fill="#000000"/><rect x="701" y="1621" width="46" height="46" fill="#000000"/><rect x="747" y="1621" width="46" height="46" fill="#000000"/><rect x="839" y="1621" width="46" height="46" fill="#000000"/><rect x="885" y="1621" width="46" height="46" fill="#000000"/><rect x="977" y="1621" width="46" height="46" fill="#000000"/><rect x="1115" y="1621" width="46" height="46" fill="#000000"/><rect x="1161" y="1621" width="46" height="46" fill="#000000"/><rect x="1253" y="1621" width="46" height="46" fill="#000000"/><rect x="1437" y="1621" width="46" height="46" fill="#000000"/><rect x="1483" y="1621" width="46" height="46" fill="#000000"/><rect x="1529" y="1621" width="46" height="46" fill="#000000"/><rect x="1575" y="1621" width="46" height="46" fill="#000000"/><rect x="1621" y="1621" width="46" height="46" fill="#000000"/><rect x="1667" y="1621" width="46" height="46" fill="#000000"/><rect x="1713" y="1621" width="46" height="46" fill="#000000"/><rect x="517" y="1667" width="46" height="46" fill="#000000"/><rect x="563" y="1667" width="46" height="46" fill="#000000"/><rect x="701" y="1667" width="46" height="46" fill="#000000"/><rect x="839" y="1667" width="46" height="46" fill="#000000"/><rect x="885" y="1667" width="46" height="46" fill="#000000"/><rect x="1115" y="1667" width="46" height="46" fill="#000000"/><rect x="1161" y="1667" width="46" height="46" fill="#000000"/><rect x="1253" y="1667" width="46" height="46" fill="#000000"/><rect x="1345" y="1667" width="46" height="46" fill="#000000"/><rect x="1437" y="1667" width="46" height="46" fill="#000000"/><rect x="1483" y="1667" width="46" height="46" fill="#000000"/><rect x="1529" y="1667" width="46" height="46" fill="#000000"/><rect x="1575" y="1667" width="46" height="46" fill="#000000"/><rect x="1667" y="1667" width="46" height="46" fill="#000000"/><rect x="1759" y="1667" width="46" height="46" fill="#000000"/><rect x="1805" y="1667" width="46" height="46" fill="#000000"/><rect x="517" y="1713" width="46" height="46" fill="#000000"/><rect x="747" y="1713" width="46" height="46" fill="#000000"/><rect x="839" y="1713" width="46" height="46" fill="#000000"/><rect x="1069" y="1713" width="46" height="46" fill="#000000"/><rect x="1299" y="1713" width="46" height="46" fill="#000000"/><rect x="1345" y="1713" width="46" height="46" fill="#000000"/><rect x="1391" y="1713" width="46" height="46" fill="#000000"/><rect x="1483" y="1713" width="46" height="46" fill="#000000"/><rect x="1713" y="1713" width="46" height="46" fill="#000000"/><rect x="1805" y="1713" width="46" height="46" fill="#000000"/><rect x="517" y="1759" width="46" height="46" fill="#000000"/><rect x="655" y="1759" width="46" height="46" fill="#000000"/><rect x="701" y="1759" width="46" height="46" fill="#000000"/><rect x="793" y="1759" width="46" height="46" fill="#000000"/><rect x="839" y="1759" width="46" height="46" fill="#000000"/><rect x="885" y="1759" width="46" height="46" fill="#000000"/><rect x="1023" y="1759" width="46" height="46" fill="#000000"/><rect x="1115" y="1759" width="46" height="46" fill="#000000"/><rect x="1161" y="1759" width="46" height="46" fill="#000000"/><rect x="1207" y="1759" width="46" height="46" fill="#000000"/><rect x="1253" y="1759" width="46" height="46" fill="#000000"/><rect x="1483" y="1759" width="46" height="46" fill="#000000"/><rect x="1529" y="1759" width="46" height="46" fill="#000000"/><rect x="1575" y="1759" width="46" height="46" fill="#000000"/><rect x="1621" y="1759" width="46" height="46" fill="#000000"/><rect x="1667" y="1759" width="46" height="46" fill="#000000"/><rect x="1759" y="1759" width="46" height="46" fill="#000000"/><rect x="517" y="1805" width="46" height="46" fill="#000000"/><rect x="609" y="1805" width="46" height="46" fill="#000000"/><rect x="701" y="1805" width="46" height="46" fill="#000000"/><rect x="747" y="1805" width="46" height="46" fill="#000000"/><rect x="839" y="1805" width="46" height="46" fill="#000000"/><rect x="977" y="1805" width="46" height="46" fill="#000000"/><rect x="1069" y="1805" width="46" height="46" fill="#000000"/><rect x="1253" y="1805" width="46" height="46" fill="#000000"/><rect x="1299" y="1805" width="46" height="46" fill="#000000"/><rect x="1391" y="1805" width="46" height="46" fill="#000000"/><rect x="1759" y="1805" width="46" height="46" fill="#000000"/><rect x="1805" y="1805" width="46" height="46" fill="#000000"/><svg version="1.0" id="Ebene_1" x="149" y="149" width="322" height="322" viewBox="0 0 699.988 699.988" enable-background="new 0 0 699.988 699.988" xml:space="preserve" shape-rendering="auto">
<g>
	<path fill="#000000" d="M578.304,15.493c-30.441-4.132-60.883-7.437-91.322-9.916c-30.439-2.478-60.883-4.13-91.32-4.957   c-0.002,0-0.002,0-0.002,0c-30.441-0.826-60.881-0.826-91.322,0c-30.441,0.826-60.882,2.479-91.323,4.957   c-30.44,2.48-60.882,5.784-91.323,9.916c-30.441,4.13-60.882,9.088-91.324,14.872c-5.784,30.44-10.742,60.882-14.873,91.322   c-4.131,30.441-7.436,60.882-9.916,91.322C3.1,243.45,1.448,273.893,0.62,304.332c-0.827,30.442-0.827,60.884,0,91.324   c0.826,30.442,2.479,60.882,4.958,91.324c2.479,30.442,5.784,60.883,9.916,91.323c4.13,30.441,9.088,60.881,14.872,91.322   c30.441,5.781,60.882,10.739,91.324,14.87c30.44,4.135,60.881,7.438,91.323,9.914c30.441,2.48,60.881,4.132,91.323,4.958   c30.44,0.826,60.881,0.826,91.321,0c0.002,0,0.002,0,0.002,0c30.439-0.826,60.881-2.479,91.32-4.958   c30.439-2.479,60.883-5.78,91.324-9.914c30.438-4.131,60.881-9.089,91.318-14.87c5.783-30.441,10.74-60.881,14.871-91.322   c4.133-30.44,7.439-60.881,9.916-91.323c2.48-30.441,4.131-60.881,4.957-91.324c0.826-30.441,0.826-60.882,0-91.324   c-0.824-30.438-2.479-60.882-4.957-91.321c-2.479-30.441-5.783-60.882-9.916-91.323c-4.131-30.44-9.088-60.882-14.871-91.322   C639.185,24.581,608.744,19.624,578.304,15.493z M596.01,206.636c1.771,31.855,2.949,63.714,3.543,95.569   c0.59,31.858,0.59,63.716,0,95.575c-0.594,31.858-1.771,63.714-3.543,95.573c-1.77,31.857-4.131,63.716-7.08,95.573   c-31.857,2.95-63.719,5.311-95.574,7.082c-31.857,1.771-63.713,2.95-95.568,3.541c-0.002,0-0.002,0-0.002,0   c-31.855,0.59-63.713,0.59-95.571,0c-31.858-0.591-63.716-1.771-95.573-3.541c-31.857-1.771-63.715-4.133-95.572-7.082   c-2.951-31.857-5.312-63.716-7.083-95.573c-1.771-31.858-2.951-63.714-3.542-95.573s-0.59-63.716,0-95.575   c0.59-31.856,1.771-63.715,3.541-95.569c1.771-31.858,4.132-63.716,7.083-95.572c31.857-2.95,63.714-5.313,95.573-7.081   c31.856-1.772,63.714-2.952,95.573-3.542c31.856-0.592,63.711-0.592,95.571,0c0,0,0,0,0.002,0   c31.855,0.59,63.711,1.77,95.568,3.542c31.855,1.771,63.717,4.132,95.574,7.081C591.879,142.922,594.238,174.778,596.01,206.636z"/>
</g>
</svg>
<svg version="1.0" id="Ebene_1" x="149" y="149" width="322" height="322" viewBox="0 0 699.988 699.988" enable-background="new 0 0 699.988 699.988" xml:space="preserve" shape-rendering="auto">
<g>
	<path fill="#000000" d="M395.865,201.374L395.865,201.374c-30.58-1.835-61.162-1.835-91.741,0   c-30.581,1.834-61.162,5.504-91.741,11.009c-5.505,30.58-9.174,61.161-11.009,91.74c-1.835,30.581-1.835,61.162,0,91.742   c1.834,30.581,5.504,61.16,11.009,91.74c30.581,5.504,61.161,9.174,91.741,11.01c30.58,1.834,61.161,1.834,91.741,0l0,0   c30.58-1.836,61.16-5.506,91.74-11.01c5.504-30.58,9.174-61.159,11.01-91.74c1.834-30.58,1.834-61.162,0-91.742   c-1.836-30.58-5.506-61.161-11.01-91.74C457.025,206.878,426.445,203.208,395.865,201.374z"/>
</g>
</svg>
<svg version="1.0" id="Ebene_1" x="1529" y="149" width="322" height="322" viewBox="0 0 699.988 699.988" enable-background="new 0 0 699.988 699.988" xml:space="preserve" shape-rendering="auto">
<g>
	<path fill="#000000" d="M578.304,15.493c-30.441-4.132-60.883-7.437-91.322-9.916c-30.439-2.478-60.883-4.13-91.32-4.957   c-0.002,0-0.002,0-0.002,0c-30.441-0.826-60.881-0.826-91.322,0c-30.441,0.826-60.882,2.479-91.323,4.957   c-30.44,2.48-60.882,5.784-91.323,9.916c-30.441,4.13-60.882,9.088-91.324,14.872c-5.784,30.44-10.742,60.882-14.873,91.322   c-4.131,30.441-7.436,60.882-9.916,91.322C3.1,243.45,1.448,273.893,0.62,304.332c-0.827,30.442-0.827,60.884,0,91.324   c0.826,30.442,2.479,60.882,4.958,91.324c2.479,30.442,5.784,60.883,9.916,91.323c4.13,30.441,9.088,60.881,14.872,91.322   c30.441,5.781,60.882,10.739,91.324,14.87c30.44,4.135,60.881,7.438,91.323,9.914c30.441,2.48,60.881,4.132,91.323,4.958   c30.44,0.826,60.881,0.826,91.321,0c0.002,0,0.002,0,0.002,0c30.439-0.826,60.881-2.479,91.32-4.958   c30.439-2.479,60.883-5.78,91.324-9.914c30.438-4.131,60.881-9.089,91.318-14.87c5.783-30.441,10.74-60.881,14.871-91.322   c4.133-30.44,7.439-60.881,9.916-91.323c2.48-30.441,4.131-60.881,4.957-91.324c0.826-30.441,0.826-60.882,0-91.324   c-0.824-30.438-2.479-60.882-4.957-91.321c-2.479-30.441-5.783-60.882-9.916-91.323c-4.131-30.44-9.088-60.882-14.871-91.322   C639.185,24.581,608.744,19.624,578.304,15.493z M596.01,206.636c1.771,31.855,2.949,63.714,3.543,95.569   c0.59,31.858,0.59,63.716,0,95.575c-0.594,31.858-1.771,63.714-3.543,95.573c-1.77,31.857-4.131,63.716-7.08,95.573   c-31.857,2.95-63.719,5.311-95.574,7.082c-31.857,1.771-63.713,2.95-95.568,3.541c-0.002,0-0.002,0-0.002,0   c-31.855,0.59-63.713,0.59-95.571,0c-31.858-0.591-63.716-1.771-95.573-3.541c-31.857-1.771-63.715-4.133-95.572-7.082   c-2.951-31.857-5.312-63.716-7.083-95.573c-1.771-31.858-2.951-63.714-3.542-95.573s-0.59-63.716,0-95.575   c0.59-31.856,1.771-63.715,3.541-95.569c1.771-31.858,4.132-63.716,7.083-95.572c31.857-2.95,63.714-5.313,95.573-7.081   c31.856-1.772,63.714-2.952,95.573-3.542c31.856-0.592,63.711-0.592,95.571,0c0,0,0,0,0.002,0   c31.855,0.59,63.711,1.77,95.568,3.542c31.855,1.771,63.717,4.132,95.574,7.081C591.879,142.922,594.238,174.778,596.01,206.636z"/>
</g>
</svg>
<svg version="1.0" id="Ebene_1" x="1529" y="149" width="322" height="322" viewBox="0 0 699.988 699.988" enable-background="new 0 0 699.988 699.988" xml:space="preserve" shape-rendering="auto">
<g>
	<path fill="#000000" d="M395.865,201.374L395.865,201.374c-30.58-1.835-61.162-1.835-91.741,0   c-30.581,1.834-61.162,5.504-91.741,11.009c-5.505,30.58-9.174,61.161-11.009,91.74c-1.835,30.581-1.835,61.162,0,91.742   c1.834,30.581,5.504,61.16,11.009,91.74c30.581,5.504,61.161,9.174,91.741,11.01c30.58,1.834,61.161,1.834,91.741,0l0,0   c30.58-1.836,61.16-5.506,91.74-11.01c5.504-30.58,9.174-61.159,11.01-91.74c1.834-30.58,1.834-61.162,0-91.742   c-1.836-30.58-5.506-61.161-11.01-91.74C457.025,206.878,426.445,203.208,395.865,201.374z"/>
</g>
</svg>
<svg version="1.0" id="Ebene_1" x="149" y="1529" width="322" height="322" viewBox="0 0 699.988 699.988" enable-background="new 0 0 699.988 699.988" xml:space="preserve" shape-rendering="auto">
<g>
	<path fill="#000000" d="M578.304,15.493c-30.441-4.132-60.883-7.437-91.322-9.916c-30.439-2.478-60.883-4.13-91.32-4.957   c-0.002,0-0.002,0-0.002,0c-30.441-0.826-60.881-0.826-91.322,0c-30.441,0.826-60.882,2.479-91.323,4.957   c-30.44,2.48-60.882,5.784-91.323,9.916c-30.441,4.13-60.882,9.088-91.324,14.872c-5.784,30.44-10.742,60.882-14.873,91.322   c-4.131,30.441-7.436,60.882-9.916,91.322C3.1,243.45,1.448,273.893,0.62,304.332c-0.827,30.442-0.827,60.884,0,91.324   c0.826,30.442,2.479,60.882,4.958,91.324c2.479,30.442,5.784,60.883,9.916,91.323c4.13,30.441,9.088,60.881,14.872,91.322   c30.441,5.781,60.882,10.739,91.324,14.87c30.44,4.135,60.881,7.438,91.323,9.914c30.441,2.48,60.881,4.132,91.323,4.958   c30.44,0.826,60.881,0.826,91.321,0c0.002,0,0.002,0,0.002,0c30.439-0.826,60.881-2.479,91.32-4.958   c30.439-2.479,60.883-5.78,91.324-9.914c30.438-4.131,60.881-9.089,91.318-14.87c5.783-30.441,10.74-60.881,14.871-91.322   c4.133-30.44,7.439-60.881,9.916-91.323c2.48-30.441,4.131-60.881,4.957-91.324c0.826-30.441,0.826-60.882,0-91.324   c-0.824-30.438-2.479-60.882-4.957-91.321c-2.479-30.441-5.783-60.882-9.916-91.323c-4.131-30.44-9.088-60.882-14.871-91.322   C639.185,24.581,608.744,19.624,578.304,15.493z M596.01,206.636c1.771,31.855,2.949,63.714,3.543,95.569   c0.59,31.858,0.59,63.716,0,95.575c-0.594,31.858-1.771,63.714-3.543,95.573c-1.77,31.857-4.131,63.716-7.08,95.573   c-31.857,2.95-63.719,5.311-95.574,7.082c-31.857,1.771-63.713,2.95-95.568,3.541c-0.002,0-0.002,0-0.002,0   c-31.855,0.59-63.713,0.59-95.571,0c-31.858-0.591-63.716-1.771-95.573-3.541c-31.857-1.771-63.715-4.133-95.572-7.082   c-2.951-31.857-5.312-63.716-7.083-95.573c-1.771-31.858-2.951-63.714-3.542-95.573s-0.59-63.716,0-95.575   c0.59-31.856,1.771-63.715,3.541-95.569c1.771-31.858,4.132-63.716,7.083-95.572c31.857-2.95,63.714-5.313,95.573-7.081   c31.856-1.772,63.714-2.952,95.573-3.542c31.856-0.592,63.711-0.592,95.571,0c0,0,0,0,0.002,0   c31.855,0.59,63.711,1.77,95.568,3.542c31.855,1.771,63.717,4.132,95.574,7.081C591.879,142.922,594.238,174.778,596.01,206.636z"/>
</g>
</svg>
<svg version="1.0" id="Ebene_1" x="149" y="1529" width="322" height="322" viewBox="0 0 699.988 699.988" enable-background="new 0 0 699.988 699.988" xml:space="preserve" shape-rendering="auto">
<g>
	<path fill="#000000" d="M395.865,201.374L395.865,201.374c-30.58-1.835-61.162-1.835-91.741,0   c-30.581,1.834-61.162,5.504-91.741,11.009c-5.505,30.58-9.174,61.161-11.009,91.74c-1.835,30.581-1.835,61.162,0,91.742   c1.834,30.581,5.504,61.16,11.009,91.74c30.581,5.504,61.161,9.174,91.741,11.01c30.58,1.834,61.161,1.834,91.741,0l0,0   c30.58-1.836,61.16-5.506,91.74-11.01c5.504-30.58,9.174-61.159,11.01-91.74c1.834-30.58,1.834-61.162,0-91.742   c-1.836-30.58-5.506-61.161-11.01-91.74C457.025,206.878,426.445,203.208,395.865,201.374z"/>
</g>
</svg>
</svg>

</svg>
